Abduction_states
version=1
nRows=5
nColumns=41
inDegrees=yes

# SIMM Motion File Header:
name Abduction_states
datacolumns 41
datarows 5
otherdata 1
range 2.09036908 2.33717083
endheader
time	/jointset/ground_thorax/thorax_tilt/value	/jointset/ground_thorax/thorax_tilt/speed	/jointset/ground_thorax/thorax_list/value	/jointset/ground_thorax/thorax_list/speed	/jointset/ground_thorax/thorax_rotation/value	/jointset/ground_thorax/thorax_rotation/speed	/jointset/ground_thorax/thorax_tx/value	/jointset/ground_thorax/thorax_tx/speed	/jointset/ground_thorax/thorax_ty/value	/jointset/ground_thorax/thorax_ty/speed	/jointset/ground_thorax/thorax_tz/value	/jointset/ground_thorax/thorax_tz/speed	/jointset/sternoclavicular/sternoclavicular_r2/value	/jointset/sternoclavicular/sternoclavicular_r2/speed	/jointset/sternoclavicular/sternoclavicular_r3/value	/jointset/sternoclavicular/sternoclavicular_r3/speed	/jointset/unrotscap/unrotscap_r3/value	/jointset/unrotscap/unrotscap_r3/speed	/jointset/unrotscap/unrotscap_r2/value	/jointset/unrotscap/unrotscap_r2/speed	/jointset/acromioclavicular/acromioclavicular_r2/value	/jointset/acromioclavicular/acromioclavicular_r2/speed	/jointset/acromioclavicular/acromioclavicular_r3/value	/jointset/acromioclavicular/acromioclavicular_r3/speed	/jointset/acromioclavicular/acromioclavicular_r1/value	/jointset/acromioclavicular/acromioclavicular_r1/speed	/jointset/unrothum/unrothum_r1/value	/jointset/unrothum/unrothum_r1/speed	/jointset/unrothum/unrothum_r3/value	/jointset/unrothum/unrothum_r3/speed	/jointset/unrothum/unrothum_r2/value	/jointset/unrothum/unrothum_r2/speed	/jointset/shoulder0/elv_angle/value	/jointset/shoulder0/elv_angle/speed	/jointset/shoulder1/shoulder_elv/value	/jointset/shoulder1/shoulder_elv/speed	/jointset/shoulder1/shoulder1_r2/value	/jointset/shoulder1/shoulder1_r2/speed	/jointset/shoulder2/shoulder_rot/value	/jointset/shoulder2/shoulder_rot/speed
      2.09036908	     -0.00000000	     -0.00000000	      0.00000000	      0.00000000	      0.00000000	      0.00000000	     -0.00000000	     -0.00000000	     -0.00000000	     -0.00000000	     -0.00000000	     -0.00000000	    -14.09537424	     16.81976588	      5.97013056	     -7.12405337	     -5.97013056	      7.12405337	     14.09537424	    -16.81976588	     -2.85400459	      3.40563423	     23.06475333	    -27.52277057	     10.36768115	    -12.37157431	    -10.36768115	     12.37157431	    -23.06475333	     27.52277057	      2.85400459	     -3.40563423	     30.00000000	     -0.00000000	     58.24589970	    -69.50382303	    -30.00000000	      0.00000000	     -0.00000000	     -0.00000000
      2.14797795	     -0.00000000	     -0.00000000	      0.00000000	      0.00000000	      0.00000000	      0.00000000	     -0.00000000	     -0.00000000	     -0.00000000	     -0.00000000	     -0.00000000	     -0.00000000	    -13.13145312	     16.56573080	      5.56185939	     -7.01645618	     -5.56185939	      7.01645618	     13.13145312	    -16.56573080	     -2.65883167	      3.35419769	     21.48745553	    -27.10708408	      9.65868069	    -12.18472189	     -9.65868069	     12.18472189	    -21.48745553	     27.10708408	      2.65883167	     -3.35419769	     30.00000000	     -0.00000000	     54.26271686	    -68.45408132	    -30.00000000	      0.00000000	     -0.00000000	     -0.00000000
      2.20558682	     -0.00000000	     -0.00000000	      0.00000000	      0.00000000	      0.00000000	      0.00000000	     -0.00000000	     -0.00000000	     -0.00000000	     -0.00000000	     -0.00000000	     -0.00000000	    -12.19292568	     15.98114162	      5.16434378	     -6.76885199	     -5.16434378	      6.76885199	     12.19292568	    -15.98114162	     -2.46880042	      3.23583119	     19.95171029	    -26.15050039	      8.96835825	    -11.75473443	     -8.96835825	     11.75473443	    -19.95171029	     26.15050039	      2.46880042	     -3.23583119	     30.00000000	     -0.00000000	     50.38446758	    -66.03840071	    -30.00000000	      0.00000000	     -0.00000000	     -0.00000000
      2.26319569	     -0.00000000	     -0.00000000	      0.00000000	      0.00000000	      0.00000000	      0.00000000	     -0.00000000	     -0.00000000	     -0.00000000	     -0.00000000	     -0.00000000	     -0.00000000	    -11.29282109	     15.25295792	      4.78310225	     -6.46042799	     -4.78310225	      6.46042799	     11.29282109	    -15.25295792	     -2.28654895	      3.08838993	     18.47883769	    -24.95894796	      8.30629726	    -11.21912776	     -8.30629726	     11.21912776	    -18.47883769	     24.95894796	      2.28654895	     -3.08838993	     30.00000000	     -0.00000000	     46.66499188	    -63.02934866	    -30.00000000	      0.00000000	     -0.00000000	     -0.00000000
      2.33717083	     -0.00000000	     -0.00000000	      0.00000000	      0.00000000	      0.00000000	      0.00000000	     -0.00000000	     -0.00000000	     -0.00000000	     -0.00000000	     -0.00000000	     -0.00000000	    -10.20162711	     14.24070318	      4.32092435	     -6.03168499	     -4.32092435	      6.03168499	     10.20162711	    -14.24070318	     -2.06560607	      2.88343052	     16.69327887	    -23.30256016	      7.50368279	    -10.47457609	     -7.50368279	     10.47457609	    -16.69327887	     23.30256016	      2.06560607	     -2.88343052	     30.00000000	     -0.00000000	     42.15588316	    -58.84643822	    -30.00000000	      0.00000000	     -0.00000000	     -0.00000000
